<?xml version="1.0" standalone="no"?><!DOCTYPE svg PUBLIC "-//W3C//DTD SVG 1.1//EN" "http://www.w3.org/Graphics/SVG/1.1/DTD/svg11.dtd"><svg t="1780315914340" class="icon" viewBox="0 0 1024 1024" version="1.1" xmlns="http://www.w3.org/2000/svg" p-id="18969" xmlns:xlink="http://www.w3.org/1999/xlink" width="1000" height="1000"><path d="M832 960H192a64 64 0 0 1-64-64v-64h96a32 32 0 0 0 9.344 22.656 32 32 0 0 0 22.656 9.408h512a32 32 0 0 0 32-32v-640a32 32 0 0 0-32-32H544a318.848 318.848 0 0 0-318.272 288H128a384.512 384.512 0 0 1 384-384h320a64 64 0 0 1 64 64v768A64 64 0 0 1 832 960z" fill="#2c2c2c" p-id="18970"></path><path d="M175.936 448m-48 0a48 48 0 1 0 96 0 48 48 0 1 0-96 0Z" fill="#2c2c2c" p-id="18971"></path><path d="M175.936 831.936m-48 0a48 48 0 1 0 96 0 48 48 0 1 0-96 0Z" fill="#2c2c2c" p-id="18972"></path><path d="M64 592m32 0l359.04 0q32 0 32 32l0 32q0 32-32 32l-359.04 0q-32 0-32-32l0-32q0-32 32-32Z" fill="#2c2c2c" p-id="18973"></path><path d="M330.895065 453.230979m22.627417 22.627417l135.764502 135.764502q22.627417 22.627417 0 45.254834l-22.627417 22.627417q-22.627417 22.627417-45.254834 0l-135.764502-135.764502q-22.627417-22.627417 0-45.254834l22.627417-22.627417q22.627417-22.627417 45.254834 0Z" fill="#2c2c2c" p-id="18974"></path><path d="M511.892695 645.681435m-22.627417 22.627417l-135.764502 135.764502q-22.627417 22.627417-45.254834 0l-22.627417-22.627417q-22.627417-22.627417 0-45.254834l135.764502-135.764502q22.627417-22.627417 45.254834 0l22.627417 22.627417q22.627417 22.627417 0 45.254834Z" fill="#2c2c2c" p-id="18975"></path></svg>